<?xml version="1.0" encoding="utf-8"?>
<!-- Generator: Adobe Illustrator 22.0.1, SVG Export Plug-In . SVG Version: 6.00 Build 0)  -->
<svg version="1.1" id="Layer_1" xmlns="http://www.w3.org/2000/svg" xmlns:xlink="http://www.w3.org/1999/xlink" x="0px" y="0px"
	 viewBox="0 0 527 28.5" style="enable-background:new 0 0 527 28.5;" xml:space="preserve">
<g>
	<path d="M0.1,27.9L0.1,27.9c1.8-0.1,3.1-0.5,3.1-2.8v-22c0-2.3-1.6-2.7-3.2-2.7V0.4h19.2l1.8,6l-0.1,0c-0.5-0.8-1.1-1.6-1.7-2.4
		c-2.1-2.8-4.3-3.5-6.6-3.5H6.1v13.4h3c4.4,0,5.6-0.5,6.3-4.6h0.1v9.2h-0.1c-0.6-3.8-1.7-4.5-5.8-4.5H6.1v10.3
		c0,2.2,0.5,3.4,3.9,3.4h3.7c2,0,3.4-0.4,5-2c1.4-1.4,2.4-2.9,3.4-4.6h0.1l-1.6,6.7H0.1z"/>
	<path d="M37.8,27.9c2.1-0.2,3.3-0.5,3.3-1.6c0-0.7-0.5-1.5-0.8-2L34,15l-4.8,6.3c-1.6,2-2.5,3.8-2.5,4.8c0,1.1,0.9,1.7,3.3,1.8v0.1
		h-8.5v-0.1c1.5-0.2,2.9-0.8,4.7-3.1l7.7-10L26.8,4.6c-2.1-3-2.8-4-4.9-4.2V0.4h10.1v0.1C29.8,0.6,29,1,29,2c0,0.8,0.9,2.2,1.6,3.1
		l5.3,7.5L40,7.1c1.2-1.6,2.6-3.6,2.6-4.9c0-1.4-1.2-1.6-2.9-1.8V0.4h8.3v0.1c-2.6,0.4-3.8,1.6-5.9,4.3l-6.3,8l7.2,10.7
		c2.3,3.4,3.3,4.4,5.2,4.5v0.1L37.8,27.9L37.8,27.9z"/>
	<path d="M59.3,15.9h-4v9.2c0,2.3,1.6,2.7,3.5,2.7v0.1h-9.3v-0.1c2,0,2.9-0.4,2.9-2.7v-22c0-2.3-1.1-2.7-3-2.7V0.4
		c3.6-0.1,7-0.1,10.7-0.1c5.1,0,9.1,2.3,9.1,7.9C69.4,13.9,64.2,15.9,59.3,15.9z M59.4,0.5c-3.4,0-4.1,0.3-4.1,2.8v12.5h1.9
		c5.4,0,8.9-0.4,8.9-7.8C66.1,3.6,64.1,0.5,59.4,0.5z"/>
	<path d="M71.4,27.9v-0.1c2,0,3.2-0.4,3.2-2.7v-22c0-2.3-1.6-2.7-3.1-2.7V0.4h9.8v0.1c-2.6,0.1-3.8,0.9-3.8,3.1v20.6
		c0,3.5,1.4,3.6,5.3,3.6c5.3,0,7.3-0.4,9.6-3.8c1-1.4,2-3.1,2.8-4.4h0.1l-2,8.4H71.4z"/>
	<path d="M109,28.5c-10.4,0-13.1-8.9-13.1-13.9c0-12,9.4-14.6,13.3-14.6c6.5,0,13.6,4.5,13.6,14.4C122.8,19.1,120.2,28.5,109,28.5z
		 M109.5,0.2c-5.1,0-10.3,4.6-10.3,14.6c0,7.1,3.6,13.6,9.8,13.6c7.2,0,10.5-7.8,10.5-13.9C119.5,4.1,113.2,0.2,109.5,0.2z"/>
	<path d="M136.6,16.1c-1.5-1.2-2.8-1.4-5.5-1.4v10c0,2.5,0.5,3.1,3.4,3.1v0.1h-9.3v-0.1c2.3,0,3-0.6,3-3.1V3.4
		c0-2.3-0.8-2.8-2.8-2.9V0.4c3.4,0,6.6-0.2,10.1-0.2c5.4,0,9.5,1.8,9.5,7c0,3.7-2.4,5.9-6.7,7c2.1,1.1,4.1,4.8,7.4,10.5
		c1,1.8,2,3,3.8,3.1v0.1h-5.6C141.9,24.2,139,18.1,136.6,16.1z M134.6,0.4c-2.7,0-3.4,0.5-3.4,2.9v11.2c1.6,0,2.8,0,4-0.1
		c4.2-0.3,6.9-2.5,6.9-7.1C142,3.2,139.7,0.4,134.6,0.4z"/>
	<path d="M150.1,27.9L150.1,27.9c1.8-0.1,3.1-0.5,3.1-2.8v-22c0-2.3-1.6-2.7-3.2-2.7V0.4h19.2l1.8,6l-0.1,0
		c-0.5-0.8-1.1-1.6-1.7-2.4c-2.1-2.8-4.3-3.5-6.6-3.5h-6.4v13.4h3c4.4,0,5.6-0.5,6.3-4.6h0.1v9.2h-0.1c-0.6-3.8-1.7-4.5-5.8-4.5
		h-3.5v10.3c0,2.2,0.5,3.4,3.9,3.4h3.7c2,0,3.4-0.4,5-2c1.4-1.4,2.4-2.9,3.4-4.6h0.1l-1.6,6.7H150.1z"/>
	<path d="M195.5,19.2c-2.1,4.4-2.8,6.4-2.8,7.1c0,0.5,0.3,0.7,0.6,0.7c0.6,0,2.3-1.3,4.2-3.8l0.1,0.1c-2.4,3.4-5,5.1-6.3,5.1
		c-0.5,0-1-0.3-1-0.8c0-1.2,0.5-3.1,2.2-6.9h0c-3,4.6-5.9,7.7-9,7.7c-1.8,0-3-1-3-2.8c0-4.9,8.1-15.3,13.8-15.3c1.3,0,2,0.6,2.4,1.8
		l0.7-1.4h2.1C198.8,12.4,195.5,19.2,195.5,19.2z M194.1,10.4c-4.1,0-11.1,11.6-11.1,15.2c0,1.5,0.7,2.2,1.8,2.2
		c4,0,11.2-11.9,11.2-15.4C195.9,11,195.2,10.4,194.1,10.4z"/>
	<path d="M230.9,25.3c-3,2-5.9,3.2-9.1,3.2c-8.1,0-13.3-5.3-13.3-14.1c0-8.3,5.6-14.4,13.6-14.4c3.1,0,5.6,1.2,8.6,3.1l1.4-1.9h0.1
		v8.9h-0.1c-0.8-5.3-4.3-9.9-10-9.9c-6.7,0-10.4,6.7-10.4,14.5c0,7.1,3.8,13.7,10.1,13.7c5.7,0,9.2-4.2,10.3-9.3h0.1v8.5h-0.2
		L230.9,25.3z"/>
	<path d="M249.3,27.9c2,0,3.4-0.5,3.4-2.1c0-0.7-0.6-2.4-1.2-4l-1.7-4.7h-10.1l-1.7,4.6c-0.8,2.3-1,3.6-1,4.1c0,1.6,1.4,2,2.4,2.1
		l0.8,0v0.1h-6.5v-0.1c1.4-0.3,2.2-1.2,3.1-3.6l7.8-20.7L244,2.5c1-0.8,1.6-1.6,2.2-2.4l9.3,23.8c1.2,3,1.8,3.8,3.5,4.1v0.1
		L249.3,27.9L249.3,27.9z M239.8,16.9h9.9l-5-13.1L239.8,16.9z"/>
	<path d="M271.4,16.1c-1.5-1.2-2.8-1.4-5.5-1.4v10c0,2.5,0.5,3.1,3.4,3.1v0.1h-9.3v-0.1c2.3,0,3-0.6,3-3.1V3.4
		c0-2.3-0.8-2.8-2.8-2.9V0.4c3.4,0,6.6-0.2,10.1-0.2c5.4,0,9.5,1.8,9.5,7c0,3.7-2.4,5.9-6.7,7c2.1,1.1,4.1,4.8,7.4,10.5
		c1,1.8,2,3,3.8,3.1v0.1h-5.6C276.7,24.2,273.8,18.1,271.4,16.1z M269.4,0.4c-2.7,0-3.4,0.5-3.4,2.9v11.2c1.6,0,2.8,0,4-0.1
		c4.2-0.3,6.9-2.5,6.9-7.1C276.8,3.2,274.5,0.4,269.4,0.4z"/>
	<path d="M284.9,27.9L284.9,27.9c1.8-0.1,3.1-0.5,3.1-2.8v-22c0-2.3-1.6-2.7-3.2-2.7V0.4H304l1.8,6l-0.1,0c-0.5-0.8-1.1-1.6-1.7-2.4
		c-2.1-2.8-4.3-3.5-6.6-3.5h-6.4v13.4h3c4.4,0,5.6-0.5,6.3-4.6h0.1v9.2h-0.1c-0.6-3.8-1.7-4.5-5.8-4.5h-3.5v10.3
		c0,2.2,0.5,3.4,3.9,3.4h3.7c2,0,3.4-0.4,5-2c1.4-1.4,2.4-2.9,3.4-4.6h0.1l-1.6,6.7H284.9z"/>
	<path d="M307.8,27.9L307.8,27.9c1.8-0.1,3.1-0.5,3.1-2.8v-22c0-2.3-1.6-2.7-3.2-2.7V0.4h19.2l1.8,6l-0.1,0
		c-0.5-0.8-1.1-1.6-1.7-2.4c-2.1-2.8-4.3-3.5-6.6-3.5h-6.4v13.4h3c4.4,0,5.6-0.5,6.3-4.6h0.1v9.2h-0.1c-0.6-3.8-1.7-4.5-5.8-4.5
		h-3.5v10.3c0,2.2,0.5,3.4,3.9,3.4h3.7c2,0,3.4-0.4,5-2c1.4-1.4,2.4-2.9,3.4-4.6h0.1l-1.6,6.7H307.8z"/>
	<path d="M342.2,16.1c-1.5-1.2-2.8-1.4-5.5-1.4v10c0,2.5,0.5,3.1,3.4,3.1v0.1h-9.3v-0.1c2.3,0,3-0.6,3-3.1V3.4
		c0-2.3-0.8-2.8-2.8-2.9V0.4c3.4,0,6.6-0.2,10.1-0.2c5.4,0,9.5,1.8,9.5,7c0,3.7-2.4,5.9-6.7,7c2.1,1.1,4.1,4.8,7.4,10.5
		c1,1.8,2,3,3.8,3.1v0.1h-5.6C347.4,24.2,344.5,18.1,342.2,16.1z M340.1,0.4c-2.7,0-3.4,0.5-3.4,2.9v11.2c1.6,0,2.8,0,4-0.1
		c4.2-0.3,6.9-2.5,6.9-7.1C347.5,3.2,345.3,0.4,340.1,0.4z"/>
	<path d="M396.1,4.9l-7.3,23.6h-0.2l-6.8-19.9h0l-6.9,19.9h-0.2L366.3,4c-0.8-2.2-1.4-3.3-2.9-3.5V0.4h8.3v0.1c-1.6,0.1-3,0.4-3,1.6
		c0,0.3,0.2,1.1,0.4,1.8l6.9,20.5h0l5.6-16.1l-1.4-4.1c-1-3-1.7-3.6-3.6-3.6V0.4h9.5v0.1c-2.3,0.1-3.2,0.6-3.2,1.9
		c0,0.9,0.6,2.8,1,3.8l5.9,18h0l4.9-15.7c0.8-2.6,1.2-4.7,1.2-5.6c0-1.9-1.2-2.1-3.2-2.3V0.4h6.3v0.1C397.6,0.9,396.9,2.3,396.1,4.9
		z"/>
	<path d="M399.3,27.9c2,0,3.6-0.4,3.6-2.7v-22c0-2.4-1.6-2.7-3.6-2.7V0.4h10.3v0.1c-2,0-3.7,0.4-3.7,2.7v22c0,2.4,1.7,2.7,3.7,2.7
		v0.1L399.3,27.9L399.3,27.9z"/>
	<path d="M433,2.6c-0.8-1.4-1.7-2-3.6-2h-5.3v24.6c0,2,1.1,2.6,3.7,2.7v0.1h-10.3v-0.1c2.5-0.2,3.6-0.7,3.6-2.7V0.6h-5.3
		c-2.1,0-2.7,0.7-3.6,2c-0.7,1-1.6,2.7-2.6,4.3l-0.1,0l1.3-6.8c0.9,0.2,2.1,0.4,3.2,0.4h17.1c1.1,0,2.3-0.2,3.2-0.4l1.2,6.8l-0.1,0
		C434.6,5.4,433.8,3.9,433,2.6z"/>
	<path d="M460.5,3.2v22c0,2.3,1.2,2.6,3,2.7v0.1H454v-0.1c1.9,0,3.5-0.4,3.5-2.7V14.1h-15.3v11.1c0,2.3,1.2,2.6,3.4,2.7v0.1h-9.3
		v-0.1c1.5,0,3.1-0.4,3.1-2.7v-22c0-2.3-1.5-2.6-3-2.7V0.4h9.7v0.1c-2.1,0-3.8,0.3-3.8,2.7v10.7h15.3V3.2c0-2.3-1.6-2.6-3.5-2.7V0.4
		h9.5v0.1C462,0.5,460.5,0.9,460.5,3.2z"/>
	<path d="M486.2,16.1c-1.5-1.2-2.8-1.4-5.5-1.4v10c0,2.5,0.5,3.1,3.4,3.1v0.1h-9.3v-0.1c2.3,0,3-0.6,3-3.1V3.4
		c0-2.3-0.8-2.8-2.8-2.9V0.4c3.4,0,6.6-0.2,10.1-0.2c5.4,0,9.5,1.8,9.5,7c0,3.7-2.4,5.9-6.7,7c2.1,1.1,4.1,4.8,7.4,10.5
		c1,1.8,2,3,3.8,3.1v0.1h-5.6C491.4,24.2,488.5,18.1,486.2,16.1z M484.1,0.4c-2.7,0-3.4,0.5-3.4,2.9v11.2c1.6,0,2.8,0,4-0.1
		c4.2-0.3,6.9-2.5,6.9-7.1C491.5,3.2,489.3,0.4,484.1,0.4z"/>
	<path d="M523.9,3.2v22c0,2.3,1.2,2.6,3,2.7v0.1h-9.4v-0.1c1.9,0,3.5-0.4,3.5-2.7V14.1h-15.3v11.1c0,2.3,1.2,2.6,3.4,2.7v0.1h-9.3
		v-0.1c1.5,0,3.1-0.4,3.1-2.7v-22c0-2.3-1.5-2.6-3-2.7V0.4h9.7v0.1c-2.1,0-3.8,0.3-3.8,2.7v10.7H521V3.2c0-2.3-1.6-2.6-3.5-2.7V0.4
		h9.5v0.1C525.5,0.5,523.9,0.9,523.9,3.2z"/>
</g>
</svg>
